<?xml version="1.0" standalone="no"?>
<!DOCTYPE svg PUBLIC "-//W3C//DTD SVG 20010904//EN"
 "http://www.w3.org/TR/2001/REC-SVG-20010904/DTD/svg10.dtd">
<svg version="1.0" xmlns="http://www.w3.org/2000/svg"
 width="700.000000pt" height="1003.000000pt" viewBox="0 0 700.000000 1003.000000"
 preserveAspectRatio="xMidYMid meet">

<g transform="translate(0.000000,1003.000000) scale(0.100000,-0.100000)"
fill="#000000" stroke="none">
<path d="M2965 10020 c-97 -10 -237 -33 -324 -53 l-55 -12 48 -25 c50 -26 99
-78 111 -117 l6 -22 -63 26 c-301 122 -652 116 -935 -17 -138 -64 -138 -65 2
-67 148 -3 201 -16 110 -28 -131 -16 -277 -79 -380 -166 l-50 -42 40 7 c49 8
131 -7 193 -35 46 -21 47 -21 22 -31 -176 -71 -301 -158 -375 -262 -97 -137
-143 -280 -152 -474 l-6 -112 59 26 c129 57 295 117 403 145 63 16 116 28 118
25 2 -2 -23 -25 -56 -50 -167 -129 -264 -300 -260 -461 1 -33 -2 -101 -6 -151
-18 -212 45 -406 177 -550 l40 -43 28 -383 c48 -646 45 -588 21 -588 -24 0
-25 -18 -13 -180 6 -76 9 -85 27 -85 24 0 30 -32 39 -210 7 -124 18 -275 36
-480 20 -237 50 -669 50 -719 0 -100 49 -234 122 -333 38 -51 347 -296 598
-473 96 -68 213 -151 260 -185 194 -141 227 -148 740 -143 l385 4 82 27 c89
30 111 45 360 244 210 168 377 318 565 503 228 226 248 268 268 565 6 94 22
301 35 460 13 160 27 344 30 410 8 128 38 312 55 329 5 5 10 30 10 56 1 46 6
82 60 439 32 214 54 402 65 561 4 52 20 160 36 240 95 480 85 901 -30 1205
-36 94 -81 183 -81 159 0 -30 -128 -128 -202 -154 -36 -13 -40 -12 -140 39
-206 107 -443 268 -553 376 -44 43 -88 101 -117 151 -189 330 -537 565 -937
635 -136 23 -340 31 -466 19z m125 -2200 c124 -16 322 -58 425 -91 l91 -29
124 24 c355 69 706 58 935 -28 220 -84 368 -213 460 -401 l44 -90 16 -270 c8
-148 15 -289 15 -311 l0 -41 -39 7 c-21 4 -54 19 -74 34 -49 38 -167 73 -285
87 -84 10 -104 17 -152 47 -30 20 -84 47 -120 61 -61 24 -76 25 -260 25 -206
0 -290 -11 -374 -47 l-48 -21 4 -68 c5 -62 4 -68 -16 -74 -60 -19 -153 -71
-201 -113 -103 -90 -153 -89 -271 4 -37 30 -100 68 -139 85 -44 18 -68 34 -66
42 3 7 7 38 9 69 3 51 1 57 -22 72 -52 35 -145 49 -359 54 -197 5 -211 4 -279
-18 -40 -12 -100 -42 -134 -65 -57 -37 -71 -42 -145 -48 -141 -13 -263 -52
-346 -112 -22 -16 -23 -15 -23 4 0 11 9 83 20 159 11 76 24 190 30 254 12 135
44 273 91 384 85 204 343 370 645 414 85 12 345 13 444 1z m-310 -1221 c265
-24 419 -74 465 -152 46 -79 42 -212 -11 -390 -33 -109 -74 -176 -163 -259
-167 -156 -405 -216 -691 -174 -139 21 -184 39 -254 106 -66 63 -109 145 -141
275 -87 344 3 548 264 600 74 14 335 11 531 -6z m1949 10 c269 -42 372 -238
297 -568 -44 -191 -121 -317 -227 -371 -92 -47 -331 -72 -478 -51 -173 26
-293 83 -407 196 -86 85 -115 134 -148 247 -53 184 -54 320 -3 395 59 87 267
138 617 151 96 4 197 8 224 10 26 2 82 -2 125 -9z m-2844 -497 c15 -101 33
-205 40 -230 16 -54 74 -154 113 -195 46 -48 133 -100 222 -131 83 -30 89 -31
270 -31 216 0 271 11 419 82 177 85 314 258 372 469 31 116 75 154 181 154
103 0 152 -42 179 -155 19 -84 93 -225 156 -300 66 -79 181 -161 269 -195 133
-49 170 -55 364 -55 174 1 190 2 266 28 130 43 227 115 288 214 41 67 64 154
94 353 l28 185 35 -3 c18 -2 36 -6 38 -8 10 -9 2 -320 -13 -512 -15 -188 -20
-224 -50 -315 -42 -129 -109 -271 -169 -363 -60 -90 -183 -208 -251 -240 -109
-51 -261 -58 -315 -15 -173 140 -307 216 -446 252 -108 28 -261 28 -367 0
l-78 -20 -77 20 c-285 74 -613 -7 -902 -221 -86 -64 -98 -67 -183 -49 -160 34
-307 175 -421 404 -112 228 -133 316 -146 640 -12 287 -3 421 28 428 9 2 19 1
22 -2 4 -3 19 -89 34 -189z m1463 -1117 c29 -3 84 -16 122 -29 l70 -24 62 26
c130 52 314 39 471 -35 111 -52 297 -194 297 -226 0 -26 -101 -163 -172 -235
-126 -127 -290 -220 -403 -229 -86 -7 -178 18 -227 62 -50 46 -83 46 -137 1
-58 -49 -101 -61 -211 -60 -78 0 -106 5 -158 26 -189 78 -340 222 -426 409
-24 52 -31 78 -24 86 22 27 178 119 262 156 109 47 179 66 276 76 74 8 94 7
198 -4z"/>
<path d="M2674 6371 c-66 -40 -98 -124 -75 -194 7 -20 29 -51 50 -70 60 -54
140 -57 210 -8 85 61 78 214 -12 270 -45 28 -130 29 -173 2z m131 -27 c19 -20
16 -43 -7 -58 -38 -23 -78 35 -42 61 23 17 29 16 49 -3z m-84 -25 c29 -29 23
-79 -13 -99 -25 -13 -31 -13 -55 0 -38 21 -45 81 -11 104 30 22 54 20 79 -5z"/>
<path d="M4195 6374 c-71 -37 -101 -92 -92 -171 5 -49 27 -85 71 -117 39 -30
143 -30 183 0 35 25 73 98 73 139 0 17 -10 51 -22 75 -39 76 -141 112 -213 74z
m81 -52 c10 -20 13 -21 24 -7 16 20 64 19 84 -1 9 -8 16 -28 16 -44 0 -16 -7
-36 -16 -44 -35 -35 -104 -8 -104 41 0 20 -3 22 -19 13 -38 -20 -71 13 -50 51
14 26 50 21 65 -9z"/>
<path d="M2476 3061 c-285 -137 -522 -254 -525 -258 -3 -5 -55 -29 -116 -53
-60 -24 -252 -104 -425 -177 -173 -74 -407 -173 -520 -221 -194 -82 -208 -90
-266 -147 -119 -117 -170 -269 -184 -540 -5 -93 -30 -471 -55 -840 -25 -369
-46 -698 -47 -732 l-3 -63 -167 0 c-143 0 -168 -2 -168 -15 0 -13 396 -15
3500 -15 3104 0 3500 2 3500 15 0 13 -26 15 -170 15 -93 0 -170 3 -170 8 1 10
-97 1513 -110 1682 -11 158 -36 266 -86 367 -40 80 -120 169 -175 195 -93 44
-899 385 -1154 488 -177 72 -461 200 -729 329 -241 116 -441 211 -445 211 -3
0 -112 -94 -241 -209 -200 -177 -238 -206 -252 -197 -9 7 -114 99 -233 205
-119 106 -222 194 -228 197 -7 2 -246 -108 -531 -245z"/>
</g>
</svg>
